<svg width="22" height="24" viewBox="0 0 22 24" fill="none" xmlns="http://www.w3.org/2000/svg">
<path d="M16.492 23.444L13.524 19.888C12.7027 20.0933 11.8627 20.196 11.004 20.196C9.17467 20.196 7.49467 19.7667 5.964 18.908C4.43333 18.0493 3.22 16.864 2.324 15.352C1.428 13.8213 0.98 12.0947 0.98 10.172C0.98 8.268 1.428 6.56 2.324 5.048C3.22 3.51733 4.43333 2.32267 5.964 1.464C7.49467 0.605333 9.17467 0.176 11.004 0.176C12.852 0.176 14.532 0.605333 16.044 1.464C17.5747 2.32267 18.7787 3.51733 19.656 5.048C20.552 6.56 21 8.268 21 10.172C21 11.908 20.6267 13.4947 19.88 14.932C19.152 16.3507 18.1533 17.508 16.884 18.404L21.364 23.444H16.492ZM5.012 10.172C5.012 11.4787 5.264 12.6267 5.768 13.616C6.272 14.6053 6.972 15.3707 7.868 15.912C8.78267 16.4347 9.828 16.696 11.004 16.696C12.18 16.696 13.216 16.4347 14.112 15.912C15.008 15.3707 15.708 14.6053 16.212 13.616C16.716 12.6267 16.968 11.4787 16.968 10.172C16.968 8.86533 16.716 7.72667 16.212 6.756C15.708 5.76667 15.008 5.01067 14.112 4.488C13.216 3.96533 12.18 3.704 11.004 3.704C9.828 3.704 8.78267 3.96533 7.868 4.488C6.972 5.01067 6.272 5.76667 5.768 6.756C5.264 7.72667 5.012 8.86533 5.012 10.172Z" fill="#004280"/>
</svg>
